<?xml version="1.0" standalone="no"?>
<!DOCTYPE svg PUBLIC "-//W3C//DTD SVG 20010904//EN"
 "http://www.w3.org/TR/2001/REC-SVG-20010904/DTD/svg10.dtd">
<svg version="1.0" xmlns="http://www.w3.org/2000/svg"
 width="300.000000pt" height="300.000000pt" viewBox="0 0 300.000000 300.000000"
 preserveAspectRatio="xMidYMid meet">
<metadata>
Created by potrace 1.11, written by Peter Selinger 2001-2013
</metadata>
<g transform="translate(0.000000,300.000000) scale(0.100000,-0.100000)"
fill="#000000" stroke="none">
<path d="M60 2606 c0 -16 21 -26 54 -26 12 0 27 -5 34 -12 18 -18 17 -1763 -1
-1798 -8 -15 -24 -27 -42 -30 -18 -3 -31 -12 -33 -23 -3 -16 10 -17 167 -17
164 0 171 1 171 20 0 20 -9 24 -41 21 -9 -1 -21 5 -28 12 -8 11 -10 244 -9
918 l3 904 40 5 c27 3 41 10 43 23 3 16 -11 17 -177 17 -148 0 -181 -3 -181
-14z"/>
<path d="M1160 2611 c0 -4 -20 -14 -44 -21 -117 -33 -268 -149 -334 -257 -101
-167 -146 -371 -147 -658 0 -368 66 -619 206 -778 65 -73 177 -147 247 -162
18 -4 36 -13 39 -21 4 -11 42 -14 198 -14 130 0 195 4 197 11 2 6 25 15 52 20
47 9 106 42 106 60 0 14 -16 11 -115 -19 -80 -23 -106 -27 -230 -26 -150 0
-148 -1 -250 66 -89 58 -155 151 -199 283 -80 237 -103 499 -71 787 22 197 46
289 107 417 51 105 144 204 233 246 56 27 69 29 180 30 120 0 164 -9 247 -52
19 -9 29 -10 33 -2 12 18 -36 59 -78 66 -21 3 -44 12 -52 19 -10 11 -51 14
-169 14 -86 0 -156 -4 -156 -9z"/>
<path d="M2356 2605 c-3 -8 -13 -15 -22 -15 -9 0 -41 -11 -70 -25 -209 -99
-317 -249 -386 -538 -21 -84 -23 -116 -22 -372 1 -293 2 -309 57 -500 56 -199
211 -366 390 -421 26 -8 47 -19 47 -24 0 -6 78 -10 199 -10 164 0 200 3 204
14 3 8 23 18 44 22 21 4 45 10 53 15 47 26 45 15 50 286 l5 258 38 3 c29 3 37
7 37 23 0 18 -9 19 -246 19 -228 0 -245 -1 -242 -17 3 -16 19 -19 118 -23
l115 -5 3 -255 c2 -209 0 -259 -12 -275 -13 -18 -29 -20 -149 -23 l-135 -4
-78 42 c-168 88 -244 214 -310 510 -25 115 -32 524 -10 661 50 316 146 493
318 585 l73 39 140 0 c114 0 146 -3 172 -17 18 -10 42 -18 54 -18 12 0 31 -8
41 -17 14 -12 21 -14 30 -5 23 23 -49 72 -107 72 -14 0 -28 7 -31 15 -5 13
-35 15 -184 15 -149 0 -179 -2 -184 -15z"/>
</g>
</svg>
